<svg width="1480" height="1180" viewBox="0 0 1480 1180" xmlns="http://www.w3.org/2000/svg" font-family="&#39;Segoe UI&#39;, Arial, Helvetica, sans-serif">
  <defs>
    <radialGradient id="ambV" cx="50%" cy="-10%" r="60%">
      <stop offset="0%" stop-color="#8b7cf7" stop-opacity="0.10"></stop>
      <stop offset="100%" stop-color="#8b7cf7" stop-opacity="0"></stop>
    </radialGradient>
    <radialGradient id="ambA" cx="12%" cy="105%" r="50%">
      <stop offset="0%" stop-color="#4ade80" stop-opacity="0.06"></stop>
      <stop offset="100%" stop-color="#4ade80" stop-opacity="0"></stop>
    </radialGradient>
    <radialGradient id="ambB" cx="88%" cy="105%" r="50%">
      <stop offset="0%" stop-color="#fba94c" stop-opacity="0.06"></stop>
      <stop offset="100%" stop-color="#fba94c" stop-opacity="0"></stop>
    </radialGradient>
    <linearGradient id="cardG" x1="0" y1="0" x2="0" y2="1">
      <stop offset="0%" stop-color="#161924"></stop>
      <stop offset="100%" stop-color="#13151c"></stop>
    </linearGradient>
    <radialGradient id="finalG" cx="50%" cy="-40%" r="120%">
      <stop offset="0%" stop-color="#8b7cf7" stop-opacity="0.18"></stop>
      <stop offset="60%" stop-color="#8b7cf7" stop-opacity="0"></stop>
    </radialGradient>
    <marker id="arr" markerWidth="10" markerHeight="8" refX="8" refY="3" orient="auto">
      <path d="M0,0 L8,3 L0,6 Z" fill="#4a506a"></path>
    </marker>
  </defs>
  

  
  <rect width="1480" height="1180" rx="24" fill="#0b0c10"></rect>
  <rect width="1480" height="1180" rx="24" fill="url(#ambV)"></rect>
  <rect width="1480" height="1180" rx="24" fill="url(#ambA)"></rect>
  <rect width="1480" height="1180" rx="24" fill="url(#ambB)"></rect>
  <rect x="0.5" y="0.5" width="1479" height="1179" rx="23.5" fill="none" stroke="#1b1e29"></rect>

  
  <text x="740" y="108" text-anchor="middle" font-family="Menlo,Consolas,monospace" font-size="12" font-weight="600" fill="#8b7cf7" letter-spacing="4">NLP PIPELINE</text>
  <text x="740" y="150" text-anchor="middle" font-size="34" font-weight="700" fill="#e8eaf2">Restaurant Review Analysis</text>
  <text x="740" y="180" text-anchor="middle" font-size="15" fill="#8b90a0">From 1M+ raw reviews to topic-level sentiment — two parallel tracks, one profile.</text>

  
  <g fill="none">
    <path stroke="rgba(139,124,247,.6)" stroke-width="1.6" d="M740,290 L740,326" marker-end="url(#arr)"></path>
    <path class="pulse" stroke="#8b7cf7" stroke-width="1.8" stroke-linecap="round" stroke-dasharray="10 220" d="M740,290 L740,326"></path>
    <path stroke="rgba(74,222,128,.55)" stroke-width="1.6" d="M660,470 C520,502 420,504 420,536" marker-end="url(#arr)"></path>
    <path class="pulse" stroke="#4ade80" stroke-width="1.8" stroke-linecap="round" stroke-dasharray="10 220" d="M660,470 C520,502 420,504 420,536"></path>
    <path stroke="rgba(251,169,76,.55)" stroke-width="1.6" d="M820,470 C960,502 1060,504 1060,536" marker-end="url(#arr)"></path>
    <path class="pulse" stroke="#fba94c" stroke-width="1.8" stroke-linecap="round" stroke-dasharray="10 220" d="M820,470 C960,502 1060,504 1060,536"></path>
    <path stroke="rgba(74,222,128,.55)" stroke-width="1.6" d="M420,650 L420,696" marker-end="url(#arr)"></path>
    <path class="pulse" stroke="#4ade80" stroke-width="1.8" stroke-linecap="round" stroke-dasharray="10 220" d="M420,650 L420,696"></path>
    <path stroke="rgba(251,169,76,.55)" stroke-width="1.6" d="M1060,650 L1060,686" marker-end="url(#arr)"></path>
    <path class="pulse" stroke="#fba94c" stroke-width="1.8" stroke-linecap="round" stroke-dasharray="10 220" d="M1060,650 L1060,686"></path>
    <path stroke="rgba(251,169,76,.55)" stroke-width="1.6" d="M1060,810 L1060,836" marker-end="url(#arr)"></path>
    <path class="pulse" stroke="#fba94c" stroke-width="1.8" stroke-linecap="round" stroke-dasharray="10 220" d="M1060,810 L1060,836"></path>
    <path stroke="rgba(74,222,128,.55)" stroke-width="1.6" d="M420,816 C420,980 440,1042 512,1050" marker-end="url(#arr)"></path>
    <path class="pulse" stroke="#4ade80" stroke-width="1.8" stroke-linecap="round" stroke-dasharray="10 220" d="M420,816 C420,980 440,1042 512,1050"></path>
    <path stroke="rgba(251,169,76,.55)" stroke-width="1.6" d="M1060,950 C1060,1024 1040,1048 968,1050" marker-end="url(#arr)"></path>
    <path class="pulse" stroke="#fba94c" stroke-width="1.8" stroke-linecap="round" stroke-dasharray="10 220" d="M1060,950 C1060,1024 1040,1048 968,1050"></path>
  </g>

  
  <g>
    <rect x="575" y="196" width="330" height="94" rx="14" fill="url(#cardG)" stroke="rgba(139,124,247,.35)"></rect>
    <rect x="595" y="185" width="96" height="22" rx="11" fill="#0b0c10" stroke="rgba(139,124,247,.4)"></rect>
    <text x="643" y="200" text-anchor="middle" font-family="Menlo,Consolas,monospace" font-size="11" font-weight="600" letter-spacing="1.2" fill="#8b7cf7">01 · SOURCE</text>
    <text x="597" y="237" font-size="18" font-weight="600" fill="#c9c2ff">Raw data</text>
    <rect x="597" y="252" width="95" height="24" rx="6" fill="#ffffff" fill-opacity="0.04" stroke="#242838"></rect>
    <text x="644" y="268" text-anchor="middle" font-family="Menlo,Consolas,monospace" font-size="12" fill="#8b90a0">1M+ reviews</text>
    <rect x="700" y="252" width="118" height="24" rx="6" fill="#ffffff" fill-opacity="0.04" stroke="#242838"></rect>
    <text x="759" y="268" text-anchor="middle" font-family="Menlo,Consolas,monospace" font-size="12" fill="#8b90a0">all categories</text>
  </g>

  
  <g>
    <rect x="575" y="332" width="330" height="138" rx="14" fill="url(#cardG)" stroke="rgba(139,124,247,.35)"></rect>
    <rect x="595" y="321" width="82" height="22" rx="11" fill="#0b0c10" stroke="rgba(139,124,247,.4)"></rect>
    <text x="636" y="336" text-anchor="middle" font-family="Menlo,Consolas,monospace" font-size="11" font-weight="600" letter-spacing="1.2" fill="#8b7cf7">02 · PREP</text>
    <text x="597" y="373" font-size="18" font-weight="600" fill="#c9c2ff">Data filtering &amp; cleaning</text>
    <rect x="597" y="388" width="205" height="24" rx="6" fill="#ffffff" fill-opacity="0.04" stroke="#242838"></rect>
    <text x="699" y="404" text-anchor="middle" font-family="Menlo,Consolas,monospace" font-size="12" fill="#8b90a0">212,119 restaurant reviews</text>
    <rect x="597" y="420" width="133" height="24" rx="6" fill="#ffffff" fill-opacity="0.04" stroke="#242838"></rect>
    <text x="663" y="436" text-anchor="middle" font-family="Menlo,Consolas,monospace" font-size="12" fill="#8b90a0">1,480 businesses</text>
    <rect x="738" y="420" width="62" height="24" rx="6" fill="#ffffff" fill-opacity="0.04" stroke="#242838"></rect>
    <text x="769" y="436" text-anchor="middle" font-family="Menlo,Consolas,monospace" font-size="12" fill="#8b90a0">Alaska</text>
  </g>

  
  <g font-family="Menlo,Consolas,monospace" font-size="12" letter-spacing="1.2">
    <circle cx="330" cy="487" r="4" fill="#4ade80"></circle>
    <text x="344" y="492" font-weight="600" fill="#4ade80">TRACK A</text>
    <text x="424" y="492" fill="#8b90a0" letter-spacing="0">— sentiment</text>
    <circle cx="982" cy="487" r="4" fill="#fba94c"></circle>
    <text x="996" y="492" font-weight="600" fill="#fba94c">TRACK B</text>
    <text x="1076" y="492" fill="#8b90a0" letter-spacing="0">— topics</text>
  </g>

  
  <g>
    <rect x="255" y="542" width="330" height="104" rx="14" fill="url(#cardG)" stroke="rgba(74,222,128,.3)"></rect>
    <rect x="275" y="531" width="96" height="22" rx="11" fill="#0b0c10" stroke="rgba(74,222,128,.35)"></rect>
    <text x="323" y="546" text-anchor="middle" font-family="Menlo,Consolas,monospace" font-size="11" font-weight="600" letter-spacing="1.2" fill="#4ade80">03A · MODEL</text>
    <text x="277" y="585" font-size="18" font-weight="600" fill="#a7f3c4">Sentiment analysis</text>
    <rect x="277" y="600" width="90" height="24" rx="6" fill="#ffffff" fill-opacity="0.04" stroke="#242838"></rect>
    <text x="322" y="616" text-anchor="middle" font-family="Menlo,Consolas,monospace" font-size="12" fill="#8b90a0">DistilBERT</text>
    <rect x="375" y="600" width="132" height="24" rx="6" fill="#ffffff" fill-opacity="0.04" stroke="#242838"></rect>
    <text x="441" y="616" text-anchor="middle" font-family="Menlo,Consolas,monospace" font-size="12" fill="#8b90a0">SST-2 fine-tuned</text>
  </g>

  
  <g>
    <rect x="255" y="702" width="330" height="104" rx="14" fill="url(#cardG)" stroke="rgba(74,222,128,.3)"></rect>
    <rect x="275" y="691" width="102" height="22" rx="11" fill="#0b0c10" stroke="rgba(74,222,128,.35)"></rect>
    <text x="326" y="706" text-anchor="middle" font-family="Menlo,Consolas,monospace" font-size="11" font-weight="600" letter-spacing="1.2" fill="#4ade80">04A · OUTPUT</text>
    <text x="277" y="745" font-size="18" font-weight="600" fill="#a7f3c4">Positive / Negative</text>
    <rect x="277" y="760" width="90" height="24" rx="6" fill="#ffffff" fill-opacity="0.04" stroke="#242838"></rect>
    <text x="322" y="776" text-anchor="middle" font-family="Menlo,Consolas,monospace" font-size="12" fill="#8b90a0">per review</text>
    <rect x="375" y="760" width="112" height="24" rx="6" fill="#ffffff" fill-opacity="0.04" stroke="#242838"></rect>
    <text x="431" y="776" text-anchor="middle" font-family="Menlo,Consolas,monospace" font-size="12" fill="#8b90a0">256 token max</text>
  </g>

  
  <g>
    <rect x="895" y="542" width="330" height="104" rx="14" fill="url(#cardG)" stroke="rgba(251,169,76,.3)"></rect>
    <rect x="915" y="531" width="96" height="22" rx="11" fill="#0b0c10" stroke="rgba(251,169,76,.35)"></rect>
    <text x="963" y="546" text-anchor="middle" font-family="Menlo,Consolas,monospace" font-size="11" font-weight="600" letter-spacing="1.2" fill="#fba94c">03B · EMBED</text>
    <text x="917" y="585" font-size="18" font-weight="600" fill="#ffd9a8">Sentence embeddings</text>
    <rect x="917" y="600" width="132" height="24" rx="6" fill="#ffffff" fill-opacity="0.04" stroke="#242838"></rect>
    <text x="983" y="616" text-anchor="middle" font-family="Menlo,Consolas,monospace" font-size="12" fill="#8b90a0">all-MiniLM-L6-v2</text>
    <rect x="1057" y="600" width="70" height="24" rx="6" fill="#ffffff" fill-opacity="0.04" stroke="#242838"></rect>
    <text x="1092" y="616" text-anchor="middle" font-family="Menlo,Consolas,monospace" font-size="12" fill="#8b90a0">384-dim</text>
  </g>

  
  <g>
    <rect x="895" y="702" width="330" height="104" rx="14" fill="url(#cardG)" stroke="rgba(251,169,76,.3)"></rect>
    <rect x="915" y="691" width="104" height="22" rx="11" fill="#0b0c10" stroke="rgba(251,169,76,.35)"></rect>
    <text x="967" y="706" text-anchor="middle" font-family="Menlo,Consolas,monospace" font-size="11" font-weight="600" letter-spacing="1.2" fill="#fba94c">04B · REDUCE</text>
    <text x="917" y="745" font-size="18" font-weight="600" fill="#ffd9a8">UMAP reduction</text>
    <rect x="917" y="760" width="150" height="24" rx="6" fill="#ffffff" fill-opacity="0.04" stroke="#242838"></rect>
    <text x="992" y="776" text-anchor="middle" font-family="Menlo,Consolas,monospace" font-size="12" fill="#8b90a0">384 → 5 dimensions</text>
  </g>

  
  <g>
    <rect x="895" y="840" width="330" height="104" rx="14" fill="url(#cardG)" stroke="rgba(251,169,76,.3)"></rect>
    <rect x="915" y="829" width="112" height="22" rx="11" fill="#0b0c10" stroke="rgba(251,169,76,.35)"></rect>
    <text x="971" y="844" text-anchor="middle" font-family="Menlo,Consolas,monospace" font-size="11" font-weight="600" letter-spacing="1.2" fill="#fba94c">05B · CLUSTER</text>
    <text x="917" y="883" font-size="18" font-weight="600" fill="#ffd9a8">HDBSCAN clustering</text>
    <rect x="917" y="898" width="90" height="24" rx="6" fill="#ffffff" fill-opacity="0.04" stroke="#242838"></rect>
    <text x="962" y="914" text-anchor="middle" font-family="Menlo,Consolas,monospace" font-size="12" fill="#8b90a0">140 topics</text>
    <rect x="1015" y="898" width="120" height="24" rx="6" fill="#ffffff" fill-opacity="0.04" stroke="#242838"></rect>
    <text x="1075" y="914" text-anchor="middle" font-family="Menlo,Consolas,monospace" font-size="12" fill="#8b90a0">min_size = 200</text>
  </g>

  
  <g>
    <rect x="525" y="992" width="430" height="116" rx="14" fill="url(#cardG)" stroke="rgba(139,124,247,.5)"></rect>
    <rect x="525" y="992" width="430" height="116" rx="14" fill="url(#finalG)"></rect>
    <rect x="692" y="981" width="96" height="22" rx="11" fill="#0b0c10" stroke="rgba(139,124,247,.4)"></rect>
    <text x="740" y="996" text-anchor="middle" font-family="Menlo,Consolas,monospace" font-size="11" font-weight="600" letter-spacing="1.2" fill="#8b7cf7">06 · RESULT</text>
    <text x="740" y="1036" text-anchor="middle" font-size="21" font-weight="600" fill="#c9c2ff">Topic-level sentiment profiling</text>
    <rect x="547" y="1052" width="110" height="24" rx="6" fill="#ffffff" fill-opacity="0.04" stroke="#242838"></rect>
    <text x="602" y="1068" text-anchor="middle" font-family="Menlo,Consolas,monospace" font-size="12" fill="#8b90a0">5 CSV outputs</text>
    <rect x="665" y="1052" width="155" height="24" rx="6" fill="#ffffff" fill-opacity="0.04" stroke="#242838"></rect>
    <text x="742" y="1068" text-anchor="middle" font-family="Menlo,Consolas,monospace" font-size="12" fill="#8b90a0">stratified examples</text>
    <rect x="828" y="1052" width="105" height="24" rx="6" fill="#ffffff" fill-opacity="0.04" stroke="#242838"></rect>
    <text x="880" y="1068" text-anchor="middle" font-family="Menlo,Consolas,monospace" font-size="12" fill="#8b90a0">reproducible</text>
  </g>
</svg>