<svg width="1100" height="850" viewBox="0 0 1100 850" xmlns="http://www.w3.org/2000/svg" font-family="Calibri, Arial, sans-serif">
  <defs>
    <marker id="ah" markerWidth="10" markerHeight="10" refX="7" refY="3.5" orient="auto">
      <path d="M0,0 L8,3.5 L0,7 Z" fill="#595959"></path>
    </marker>
  </defs>

  <rect width="1100" height="850" fill="#ffffff"></rect>

  
  <g stroke="#595959" stroke-width="1.5" fill="none">
    <line x1="550" y1="112" x2="550" y2="166" marker-end="url(#ah)"></line>
    <line x1="470" y1="242" x2="290" y2="324" marker-end="url(#ah)"></line>
    <line x1="630" y1="242" x2="810" y2="324" marker-end="url(#ah)"></line>
    <line x1="280" y1="402" x2="280" y2="464" marker-end="url(#ah)"></line>
    <line x1="820" y1="402" x2="820" y2="464" marker-end="url(#ah)"></line>
    <line x1="820" y1="542" x2="820" y2="604" marker-end="url(#ah)"></line>
    <polyline points="280,542 280,706 545,706"></polyline>
    <polyline points="820,682 820,706 555,706"></polyline>
    <line x1="550" y1="706" x2="550" y2="734" marker-end="url(#ah)"></line>
  </g>

  
  <text x="280" y="308" text-anchor="middle" font-size="13" font-weight="bold" fill="#7f7f7f" letter-spacing="1">TRACK A</text>
  <text x="820" y="308" text-anchor="middle" font-size="13" font-weight="bold" fill="#7f7f7f" letter-spacing="1">TRACK B</text>

  
  <rect x="400" y="40" width="300" height="70" rx="8" fill="#DDEBF7" stroke="#4472C4" stroke-width="1.5"></rect>
  <text x="550" y="69" text-anchor="middle" font-size="17" font-weight="bold" fill="#1F4E79">Raw data</text>
  <text x="550" y="92" text-anchor="middle" font-size="13" fill="#595959">1M+ reviews · all categories</text>

  
  <rect x="400" y="170" width="300" height="70" rx="8" fill="#DDEBF7" stroke="#4472C4" stroke-width="1.5"></rect>
  <text x="550" y="199" text-anchor="middle" font-size="17" font-weight="bold" fill="#1F4E79">Data filtering &amp; cleaning</text>
  <text x="550" y="222" text-anchor="middle" font-size="13" fill="#595959">212,119 restaurant reviews · 1,480 businesses · Alaska</text>

  
  <rect x="130" y="330" width="300" height="70" rx="8" fill="#E2EFDA" stroke="#70AD47" stroke-width="1.5"></rect>
  <text x="280" y="359" text-anchor="middle" font-size="17" font-weight="bold" fill="#375623">Sentiment analysis</text>
  <text x="280" y="382" text-anchor="middle" font-size="13" fill="#595959">DistilBERT · SST-2 fine-tuned</text>

  
  <rect x="130" y="470" width="300" height="70" rx="8" fill="#E2EFDA" stroke="#70AD47" stroke-width="1.5"></rect>
  <text x="280" y="499" text-anchor="middle" font-size="17" font-weight="bold" fill="#375623">POSITIVE / NEGATIVE</text>
  <text x="280" y="522" text-anchor="middle" font-size="13" fill="#595959">per review · 256 token max</text>

  
  <rect x="670" y="330" width="300" height="70" rx="8" fill="#FCE4D6" stroke="#ED7D31" stroke-width="1.5"></rect>
  <text x="820" y="359" text-anchor="middle" font-size="17" font-weight="bold" fill="#833C00">Sentence embeddings</text>
  <text x="820" y="382" text-anchor="middle" font-size="13" fill="#595959">all-MiniLM-L6-v2 · 384-dim</text>

  
  <rect x="670" y="470" width="300" height="70" rx="8" fill="#FCE4D6" stroke="#ED7D31" stroke-width="1.5"></rect>
  <text x="820" y="499" text-anchor="middle" font-size="17" font-weight="bold" fill="#833C00">UMAP reduction</text>
  <text x="820" y="522" text-anchor="middle" font-size="13" fill="#595959">384 → 5 dimensions</text>

  
  <rect x="670" y="610" width="300" height="72" rx="8" fill="#FCE4D6" stroke="#ED7D31" stroke-width="1.5"></rect>
  <text x="820" y="639" text-anchor="middle" font-size="17" font-weight="bold" fill="#833C00">HDBSCAN clustering</text>
  <text x="820" y="662" text-anchor="middle" font-size="13" fill="#595959">140 topics · min_size = 200</text>

  
  <rect x="360" y="738" width="380" height="76" rx="8" fill="#D9E2F3" stroke="#4472C4" stroke-width="2"></rect>
  <text x="550" y="769" text-anchor="middle" font-size="18" font-weight="bold" fill="#1F4E79">Topic-level sentiment profiling</text>
  <text x="550" y="793" text-anchor="middle" font-size="13" fill="#595959">5 CSV outputs · stratified examples · reproducible</text>
</svg>